<mxfile host="Electron" agent="Mozilla/5.0 (X11; Linux x86_64) AppleWebKit/537.36 (KHTML, like Gecko) draw.io/26.1.1 Chrome/132.0.6834.210 Electron/34.3.3 Safari/537.36" version="26.1.1">
  <diagram name="Page-1" id="Sb1mpsabmPwzXf1gHRGO">
    <mxGraphModel dx="1434" dy="871" grid="1" gridSize="10" guides="1" tooltips="1" connect="1" arrows="1" fold="1" page="1" pageScale="1" pageWidth="850" pageHeight="1100" math="0" shadow="0">
      <root>
        <mxCell id="0" />
        <mxCell id="1" parent="0" />
        <mxCell id="iScyFIRhs-aSAWfbO9UY-6" style="edgeStyle=orthogonalEdgeStyle;rounded=0;orthogonalLoop=1;jettySize=auto;html=1;entryX=0;entryY=0.5;entryDx=0;entryDy=0;" edge="1" parent="1" source="iScyFIRhs-aSAWfbO9UY-1" target="iScyFIRhs-aSAWfbO9UY-2">
          <mxGeometry relative="1" as="geometry" />
        </mxCell>
        <mxCell id="iScyFIRhs-aSAWfbO9UY-1" value="Start" style="ellipse;whiteSpace=wrap;html=1;" vertex="1" parent="1">
          <mxGeometry x="60" y="70" width="120" height="80" as="geometry" />
        </mxCell>
        <mxCell id="iScyFIRhs-aSAWfbO9UY-7" style="edgeStyle=orthogonalEdgeStyle;rounded=0;orthogonalLoop=1;jettySize=auto;html=1;entryX=0;entryY=0.5;entryDx=0;entryDy=0;" edge="1" parent="1" source="iScyFIRhs-aSAWfbO9UY-2" target="iScyFIRhs-aSAWfbO9UY-3">
          <mxGeometry relative="1" as="geometry" />
        </mxCell>
        <mxCell id="iScyFIRhs-aSAWfbO9UY-2" value="User performs action" style="rounded=0;whiteSpace=wrap;html=1;" vertex="1" parent="1">
          <mxGeometry x="250" y="80" width="120" height="60" as="geometry" />
        </mxCell>
        <mxCell id="iScyFIRhs-aSAWfbO9UY-8" style="edgeStyle=orthogonalEdgeStyle;rounded=0;orthogonalLoop=1;jettySize=auto;html=1;entryX=0;entryY=0.5;entryDx=0;entryDy=0;" edge="1" parent="1" source="iScyFIRhs-aSAWfbO9UY-3" target="iScyFIRhs-aSAWfbO9UY-4">
          <mxGeometry relative="1" as="geometry" />
        </mxCell>
        <mxCell id="iScyFIRhs-aSAWfbO9UY-3" value="DojoExecutor creates DojoCall" style="rounded=0;whiteSpace=wrap;html=1;" vertex="1" parent="1">
          <mxGeometry x="450" y="80" width="120" height="60" as="geometry" />
        </mxCell>
        <mxCell id="iScyFIRhs-aSAWfbO9UY-9" style="edgeStyle=orthogonalEdgeStyle;rounded=0;orthogonalLoop=1;jettySize=auto;html=1;entryX=0.5;entryY=0;entryDx=0;entryDy=0;" edge="1" parent="1" source="iScyFIRhs-aSAWfbO9UY-4" target="iScyFIRhs-aSAWfbO9UY-5">
          <mxGeometry relative="1" as="geometry" />
        </mxCell>
        <mxCell id="iScyFIRhs-aSAWfbO9UY-4" value="Transaction Simulation" style="rounded=0;whiteSpace=wrap;html=1;" vertex="1" parent="1">
          <mxGeometry x="640" y="80" width="120" height="60" as="geometry" />
        </mxCell>
        <mxCell id="iScyFIRhs-aSAWfbO9UY-11" value="yes" style="edgeStyle=orthogonalEdgeStyle;rounded=0;orthogonalLoop=1;jettySize=auto;html=1;entryX=1;entryY=0.5;entryDx=0;entryDy=0;" edge="1" parent="1" source="iScyFIRhs-aSAWfbO9UY-5" target="iScyFIRhs-aSAWfbO9UY-10">
          <mxGeometry relative="1" as="geometry" />
        </mxCell>
        <mxCell id="iScyFIRhs-aSAWfbO9UY-17" value="no" style="edgeStyle=orthogonalEdgeStyle;rounded=0;orthogonalLoop=1;jettySize=auto;html=1;entryX=0.5;entryY=0;entryDx=0;entryDy=0;" edge="1" parent="1" source="iScyFIRhs-aSAWfbO9UY-5" target="iScyFIRhs-aSAWfbO9UY-12">
          <mxGeometry relative="1" as="geometry" />
        </mxCell>
        <mxCell id="iScyFIRhs-aSAWfbO9UY-5" value="Error?" style="rhombus;whiteSpace=wrap;html=1;" vertex="1" parent="1">
          <mxGeometry x="660" y="230" width="80" height="80" as="geometry" />
        </mxCell>
        <mxCell id="iScyFIRhs-aSAWfbO9UY-10" value="End" style="rounded=0;whiteSpace=wrap;html=1;" vertex="1" parent="1">
          <mxGeometry x="480" y="240" width="120" height="60" as="geometry" />
        </mxCell>
        <mxCell id="iScyFIRhs-aSAWfbO9UY-15" style="edgeStyle=orthogonalEdgeStyle;rounded=0;orthogonalLoop=1;jettySize=auto;html=1;entryX=0.5;entryY=0;entryDx=0;entryDy=0;" edge="1" parent="1" source="iScyFIRhs-aSAWfbO9UY-12" target="iScyFIRhs-aSAWfbO9UY-13">
          <mxGeometry relative="1" as="geometry" />
        </mxCell>
        <mxCell id="iScyFIRhs-aSAWfbO9UY-16" style="edgeStyle=orthogonalEdgeStyle;rounded=0;orthogonalLoop=1;jettySize=auto;html=1;entryX=0.5;entryY=0;entryDx=0;entryDy=0;" edge="1" parent="1" source="iScyFIRhs-aSAWfbO9UY-12" target="iScyFIRhs-aSAWfbO9UY-14">
          <mxGeometry relative="1" as="geometry" />
        </mxCell>
        <mxCell id="iScyFIRhs-aSAWfbO9UY-12" value="Execute Transaction" style="rounded=0;whiteSpace=wrap;html=1;" vertex="1" parent="1">
          <mxGeometry x="590" y="390" width="120" height="60" as="geometry" />
        </mxCell>
        <mxCell id="iScyFIRhs-aSAWfbO9UY-13" value="Relay PixelUpdate" style="rounded=0;whiteSpace=wrap;html=1;" vertex="1" parent="1">
          <mxGeometry x="520" y="520" width="120" height="60" as="geometry" />
        </mxCell>
        <mxCell id="iScyFIRhs-aSAWfbO9UY-14" value="Apply PixelUpdate" style="rounded=0;whiteSpace=wrap;html=1;" vertex="1" parent="1">
          <mxGeometry x="670" y="520" width="120" height="60" as="geometry" />
        </mxCell>
      </root>
    </mxGraphModel>
  </diagram>
</mxfile>
